<svg xmlns="http://www.w3.org/2000/svg" width="24" height="24" viewBox="0 0 24 24">
    <defs>
        <clipPath id="clip-path">
            <path id="Rectangle_741" fill="#fff" d="M0 0H14V11H0z" transform="translate(952 1707)"/>
        </clipPath>
        <style>
            .cls-4{fill:#041f3d}
        </style>
    </defs>
    <g id="Group_512" transform="translate(-947 -1698)">
        <g id="Mask_Group_15" clip-path="url(#clip-path)">
            <circle id="Ellipse_64" cx="12" cy="12" r="12" fill="#3dffc0" transform="translate(942 1695)"/>
        </g>
        <g id="ic_date_range_24px" transform="translate(947 1698)">
            <path id="Path_1730" d="M9 11H7v2h2zm4 0h-2v2h2zm4 0h-2v2h2zm2-7h-1V2h-2v2H8V2H6v2H5a1.991 1.991 0 0 0-1.99 2L3 20a2 2 0 0 0 2 2h14a2.006 2.006 0 0 0 2-2V6a2.006 2.006 0 0 0-2-2zm0 16H5V9h14z" class="cls-4"/>
            <path id="Path_1731" fill="none" d="M0 0h24v24H0z"/>
            <path id="Path_1733" d="M9 11H7v2h2zm0 3.417H7v2h2zM17 11h-2v2h2zm2-7h-1V2h-2v2H8V2H6v2H5a1.991 1.991 0 0 0-1.99 2L3 20a2 2 0 0 0 2 2h14a2.006 2.006 0 0 0 2-2V6a2.006 2.006 0 0 0-2-2zm0 16H5V9h14z" class="cls-4"/>
        </g>
    </g>
</svg>
