<svg xmlns="http://www.w3.org/2000/svg" width="38" height="38" viewBox="0 0 38 38">
    <g transform="translate(-371 -494)">
        <rect width="38" height="36" fill="#fff" rx="8" transform="translate(371 494)"/>
        <g>
            <g>
                <path fill="#4267b2" d="M2378.971-293.96l2.107.262v5.023h-1.621c-.545 0-1.091-.018-1.634.006-1.817.082-2.555.862-2.554 2.675v3.754h5.609l-.728 5.64h-4.877v14.64h-5.833l-.025-13.71v-.905h-4.915v-5.656h4.912c0-.991-.031-1.908.008-2.823a21.488 21.488 0 0 1 .274-3.734 6.223 6.223 0 0 1 5.675-5.058 1.731 1.731 0 0 0 .327-.114z" transform="translate(-1979.496 793.96) translate(2364.504 -293.96) translate(-2364.504 293.96)"/>
            </g>
        </g>
    </g>
</svg>
