<svg xmlns="http://www.w3.org/2000/svg" width="31.167" height="31.745" viewBox="0 0 31.167 31.745">
    <defs>
        <style>
            .cls-1{fill:#fff}
        </style>
    </defs>
    <g id="Z6jOjf" transform="translate(-3455.243 -308.926)">
        <g id="Group_229" transform="translate(3455.243 308.926)">
            <path id="Path_201" d="M3481.8 313.063a15.365 15.365 0 0 0-13.443-3.877 15.915 15.915 0 0 0-12.778 18.8c1.817 8.4 9.064 13.541 17.735 12.568 10.456-1.173 14.227-10.785 12.8-17.9h-14.868v5.335h8.766c-.159 3.072-3.07 5.945-6.7 6.726a9.827 9.827 0 0 1-10.869-5.133 10.281 10.281 0 0 1 2.076-12.19 9.84 9.84 0 0 1 13.02-.257z" class="cls-1" transform="translate(-3455.243 -308.926)"/>
            <path id="Path_202" d="M3481.8 313.063l-4.26 4.07a9.84 9.84 0 0 0-13.02.257 10.281 10.281 0 0 0-2.076 12.19 9.827 9.827 0 0 0 10.869 5.133c3.631-.781 6.542-3.654 6.7-6.726h-8.766v-5.335h14.868c1.424 7.116-2.347 16.728-12.8 17.9-8.671.973-15.918-4.164-17.735-12.568a15.915 15.915 0 0 1 12.778-18.8 15.365 15.365 0 0 1 13.442 3.879z" class="cls-1" transform="translate(-3455.243 -308.926)"/>
        </g>
    </g>
</svg>
