<svg xmlns="http://www.w3.org/2000/svg" width="24.329" height="24.329" viewBox="0 0 24.329 24.329">
    <defs>
        <clipPath id="p4wahcl7wa">
            <path fill="none" d="M0 0H24.329V24.329H0z"/>
        </clipPath>
    </defs>
    <g clip-path="url(#p4wahcl7wa)">
        <path fill="#fff" fill-rule="evenodd" d="M12.165 2.163a37.3 37.3 0 0 1 4.866.135 6.269 6.269 0 0 1 2.3.405 4.747 4.747 0 0 1 2.3 2.3 6.269 6.269 0 0 1 .405 2.3c0 1.216.135 1.622.135 4.866a37.3 37.3 0 0 1-.135 4.866 6.269 6.269 0 0 1-.405 2.3 4.747 4.747 0 0 1-2.3 2.3 6.269 6.269 0 0 1-2.3.405c-1.216 0-1.622.135-4.866.135a37.3 37.3 0 0 1-4.865-.143 6.269 6.269 0 0 1-2.3-.406 4.747 4.747 0 0 1-2.3-2.3 6.269 6.269 0 0 1-.405-2.3c0-1.216-.135-1.622-.135-4.866A37.3 37.3 0 0 1 2.3 7.3 6.269 6.269 0 0 1 2.7 5a4.854 4.854 0 0 1 .946-1.352A2.285 2.285 0 0 1 5 2.7a6.269 6.269 0 0 1 2.3-.4 37.3 37.3 0 0 1 4.866-.135m0-2.163a39.937 39.937 0 0 0-5 .135A8.344 8.344 0 0 0 4.19.676a5.291 5.291 0 0 0-2.163 1.351A5.291 5.291 0 0 0 .676 4.19a6.158 6.158 0 0 0-.541 2.974 39.937 39.937 0 0 0-.135 5 39.937 39.937 0 0 0 .135 5 8.344 8.344 0 0 0 .541 2.974A5.291 5.291 0 0 0 2.027 22.3a5.291 5.291 0 0 0 2.163 1.354 8.344 8.344 0 0 0 2.974.541 39.937 39.937 0 0 0 5 .135 39.937 39.937 0 0 0 5-.135 8.344 8.344 0 0 0 2.974-.541 5.671 5.671 0 0 0 3.514-3.514 8.344 8.344 0 0 0 .541-2.974c0-1.352.135-1.757.135-5a39.937 39.937 0 0 0-.135-5 8.344 8.344 0 0 0-.541-2.974A5.291 5.291 0 0 0 22.3 2.027 5.291 5.291 0 0 0 20.139.676a8.344 8.344 0 0 0-2.973-.541 39.937 39.937 0 0 0-5-.135m0 5.947a6.117 6.117 0 0 0-6.217 6.217 6.217 6.217 0 1 0 6.217-6.217m0 10.272a3.983 3.983 0 0 1-4.056-4.054 3.983 3.983 0 0 1 4.055-4.055 3.983 3.983 0 0 1 4.055 4.055 3.983 3.983 0 0 1-4.055 4.055m6.487-12.03a1.487 1.487 0 1 0 1.487 1.487 1.5 1.5 0 0 0-1.487-1.487"/>
    </g>
</svg>
