<svg xmlns="http://www.w3.org/2000/svg" width="24" height="24" viewBox="0 0 24 24">
    <g transform="translate(-688 -1989)">
        <circle cx="6.5" cy="6.5" r="6.5" fill="#3dffc0" transform="translate(694 1992)"/>
        <g>
            <path fill="none" d="M0 0h24v24H0z" transform="translate(688 1989)"/>
            <path fill="#041f3d" d="M12 2a10 10 0 1 0 10 10A10 10 0 0 0 12 2zm-1 17.93A7.988 7.988 0 0 1 4 12a8.118 8.118 0 0 1 .21-1.79l1.441 4.906L9 16a2.006 2.006 0 0 0 2 2zm6.9-2.54A1.984 1.984 0 0 0 16 16h-1v-3c0-.55-2.927 1.716-3.477 1.716L8 12v-2h2a1 1 0 0 0 1-1V7l3 2.515c1.1 0 1-3.415 1-4.515v-.41a7.982 7.982 0 0 1 2.9 12.8z" transform="translate(688 1989)"/>
        </g>
    </g>
</svg>
