<svg xmlns="http://www.w3.org/2000/svg" width="40" height="40" viewBox="0 0 40 40">
    <defs>
        <style>
            .cls-2{fill:#fff;fill-rule:evenodd}
        </style>
    </defs>
    <g id="Group_293" transform="translate(-421 -4268)">
        <circle id="Ellipse_47" cx="20" cy="20" r="20" fill="#ffb548" transform="translate(421 4268)"/>
        <g id="Group_285" transform="translate(432 4279)">
            <path id="Path_23" d="M3677.187 3390a2.175 2.175 0 1 1-2.187 2.162 2.192 2.192 0 0 1 2.187-2.162z" class="cls-2" transform="translate(-3675 -3390)"/>
            <path id="Path_24" d="M3690.17 3647.116h-2.556a.6.6 0 0 1-.615-.59v-10.912a.608.608 0 0 1 .615-.614h2.556a.6.6 0 0 1 .59.614v10.912a.6.6 0 0 1-.59.59z" class="cls-2" transform="translate(-3686.705 -3628.979)"/>
            <path id="Path_25" d="M3948.747 3627.129a4.127 4.127 0 0 0-4.153-4.129h-.639a3.658 3.658 0 0 0-3.023 1.573 1.384 1.384 0 0 0-.2.319h-.049v-1.352a.246.246 0 0 0-.246-.246h-3.195a.264.264 0 0 0-.246.246v11.625a.264.264 0 0 0 .246.245h3.269a.246.246 0 0 0 .246-.245v-6.709a2.12 2.12 0 0 1 3.613-1.523 2.183 2.183 0 0 1 .614 1.5v6.734a.246.246 0 0 0 .246.245h3.269a.246.246 0 0 0 .246-.245v-8.036z" class="cls-2" transform="translate(-3930.561 -3617.274)"/>
        </g>
    </g>
</svg>
