<svg xmlns="http://www.w3.org/2000/svg" width="221" height="176.8" viewBox="0 0 221 176.8">
    <defs>
        <clipPath id="clip-path">
            <path id="path24" d="M0-768h221v176.8H0z" transform="translate(0 767.998)"/>
        </clipPath>
        <style>
            .cls-1{fill:#fff}
        </style>
    </defs>
    <g id="g10" transform="translate(0 767.998)">
        <g id="g12" transform="translate(22.1 -746.437)">
            <path id="path14" d="M-502.259-422.852l-38.154-15.763h-106.555v-106.29h105.743l38.967 17.355zm-150.2-126.456v115.1h110.716l44.979 18.582v-18.582h21.1v-115.1z" class="cls-1" transform="translate(652.461 549.308)"/>
        </g>
        <g id="g16" transform="translate(32.701 -697.89)">
            <path id="path18" d="M0-63.914v-19.114h1.761v8.757H12.2v-8.757h1.749v19.114H12.2v-8.8H1.761v8.8z" class="cls-1" transform="translate(0 83.028)"/>
        </g>
        <g id="g20" transform="translate(0 -767.998)">
            <g id="g22" clip-path="url(#clip-path)" transform="translate(0 0)">
                <path id="path28" d="M226.084-447.3h1.691v11.862h-1.691zm.846-2.375a1.04 1.04 0 0 1-.55-.151 1.139 1.139 0 0 1-.4-.405 1.07 1.07 0 0 1-.151-.556 1.041 1.041 0 0 1 .151-.55 1.161 1.161 0 0 1 .4-.4 1.045 1.045 0 0 1 .55-.151 1.069 1.069 0 0 1 .562.151 1.184 1.184 0 0 1 .4.394 1.014 1.014 0 0 1 .151.545 1.1 1.1 0 0 1-.151.568 1.143 1.143 0 0 1-.4.405 1.064 1.064 0 0 1-.562.151" class="cls-1" transform="translate(-173.841 524.656)"/>
                <g id="g30" transform="translate(59.471 87.218)">
                    <path id="path32" d="M-2.015-16.114l-.44-.37a2.9 2.9 0 0 0 .382-.591 4.774 4.774 0 0 0 .295-.747 3.432 3.432 0 0 0 .145-.8 1.157 1.157 0 0 1-.707-.389 1.1 1.1 0 0 1-.278-.747 1.124 1.124 0 0 1 .336-.846 1.2 1.2 0 0 1 .869-.324 1.2 1.2 0 0 1 .9.365 1.445 1.445 0 0 1 .347 1.037A3.786 3.786 0 0 1-.695-17.7a5.241 5.241 0 0 1-1.32 1.587" class="cls-1" transform="translate(2.617 20.933)"/>
                </g>
                <path id="path34" d="M295.269-463.458h1.761v19.114h-1.761z" class="cls-1" transform="translate(-227.295 533.565)"/>
                <g id="g36" transform="translate(75.387 69.76)">
                    <path id="path38" d="M-1.9-15.262l-.4-.338a3.035 3.035 0 0 0 .359-.573 4.242 4.242 0 0 0 .272-.718 3.68 3.68 0 0 0 .134-.77 1.132 1.132 0 0 1-.661-.365 1.027 1.027 0 0 1-.266-.712 1.047 1.047 0 0 1 .313-.788 1.138 1.138 0 0 1 .823-.3 1.134 1.134 0 0 1 .852.342 1.355 1.355 0 0 1 .33.979 3.645 3.645 0 0 1-.5 1.743 4.783 4.783 0 0 1-1.245 1.5" class="cls-1" transform="translate(2.467 19.827)"/>
                </g>
                <g id="g40" transform="translate(82.65 76.989)">
                    <path id="path42" d="M0-40.906v-11.862h1.691v1.622a4.725 4.725 0 0 1 1.692-1.489 4.759 4.759 0 0 1 2.2-.5 4.725 4.725 0 0 1 2.543.672 3.506 3.506 0 0 1 1.5 1.83 5.5 5.5 0 0 1 1.743-1.818 4.547 4.547 0 0 1 2.519-.684 4.779 4.779 0 0 1 2.248.516 3.75 3.75 0 0 1 1.546 1.506 4.826 4.826 0 0 1 .562 2.416v7.8h-1.69v-7.321a3.727 3.727 0 0 0-.845-2.572 2.876 2.876 0 0 0-2.259-.95 3.623 3.623 0 0 0-1.76.429 3.517 3.517 0 0 0-1.251 1.107 2.444 2.444 0 0 0-.463 1.4v7.912H8.283V-48.4a3.448 3.448 0 0 0-.839-2.445 2.886 2.886 0 0 0-2.219-.9 3.856 3.856 0 0 0-1.778.412 3.55 3.55 0 0 0-1.28 1.06 2.233 2.233 0 0 0-.475 1.332v8.039z" class="cls-1" transform="translate(0 53.139)"/>
                </g>
                <g id="g44" transform="translate(106.432 87.218)">
                    <path id="path46" d="M-3.952-7.94a1.147 1.147 0 0 1-.6-.162 1.19 1.19 0 0 1-.429-.434 1.179 1.179 0 0 1-.156-.6 1.144 1.144 0 0 1 .162-.6 1.2 1.2 0 0 1 .428-.428 1.147 1.147 0 0 1 .591-.156 1.169 1.169 0 0 1 .6.156 1.154 1.154 0 0 1 .423.428 1.178 1.178 0 0 1 .157.6 1.177 1.177 0 0 1-.157.6 1.2 1.2 0 0 1-.417.436 1.138 1.138 0 0 1-.6.162" class="cls-1" transform="translate(5.133 10.315)"/>
                </g>
                <g id="g48" transform="translate(115.27 87.218)">
                    <path id="path50" d="M-3.953-7.94a1.147 1.147 0 0 1-.6-.162 1.194 1.194 0 0 1-.429-.434 1.176 1.176 0 0 1-.157-.6 1.145 1.145 0 0 1 .163-.6 1.2 1.2 0 0 1 .428-.428 1.149 1.149 0 0 1 .591-.156 1.17 1.17 0 0 1 .6.156 1.159 1.159 0 0 1 .423.428 1.178 1.178 0 0 1 .157.6 1.176 1.176 0 0 1-.157.6 1.208 1.208 0 0 1-.416.436 1.139 1.139 0 0 1-.6.162" class="cls-1" transform="translate(5.135 10.315)"/>
                </g>
                <g id="g52" transform="translate(124.109 87.218)">
                    <path id="path54" d="M-3.952-7.94a1.146 1.146 0 0 1-.6-.162 1.19 1.19 0 0 1-.429-.434 1.179 1.179 0 0 1-.157-.6 1.144 1.144 0 0 1 .162-.6 1.2 1.2 0 0 1 .428-.428 1.146 1.146 0 0 1 .591-.156 1.169 1.169 0 0 1 .6.156 1.153 1.153 0 0 1 .423.428 1.178 1.178 0 0 1 .157.6 1.177 1.177 0 0 1-.157.6 1.2 1.2 0 0 1-.423.434 1.138 1.138 0 0 1-.6.162" class="cls-1" transform="translate(5.133 10.315)"/>
                </g>
                <g id="g56" transform="translate(31.813 102.246)">
                    <path id="path58" d="M-16.731-27.148h.773a6.138 6.138 0 0 0 1.336-.148 2.223 2.223 0 0 0 1.109-.586 1.77 1.77 0 0 0 .444-1.313 1.828 1.828 0 0 0-.444-1.336 2.221 2.221 0 0 0-1.109-.6 5.927 5.927 0 0 0-1.336-.153h-.773zm-5 10.644v-18.763h7.414a8.257 8.257 0 0 1 3.3.636 5.287 5.287 0 0 1 2.354 1.945 5.872 5.872 0 0 1 .876 3.332 6.161 6.161 0 0 1-.876 3.383 5.6 5.6 0 0 1-2.36 2.071 7.567 7.567 0 0 1-3.3.7h-2.411v6.7z" class="cls-1" transform="translate(21.735 35.267)"/>
                </g>
                <g id="g60" transform="translate(44.128 102.246)">
                    <path id="path62" d="M-27.492-37.644h3.479l-1.74-4.457zm-8.222 7.505l7.642-18.761h4.64l7.641 18.763h-5.39l-1.126-3.115H-29.2l-1.126 3.115z" class="cls-1" transform="translate(35.713 48.901)"/>
                </g>
                <g id="g64" transform="translate(60.742 102.246)">
                    <path id="path66" d="M-23.575-62.74v-8.506l-7.05-10.254h6.025l3.525 5.208 3.525-5.208h6.027l-7.05 10.257v8.506z" class="cls-1" transform="translate(30.625 81.502)"/>
                </g>
                <g id="g68" transform="translate(81.278 102.246)">
                    <path id="path70" d="M-16.73-27.148h.774a4.832 4.832 0 0 0 1.6-.227 1.922 1.922 0 0 0 .967-.688 1.921 1.921 0 0 0 .324-1.132 1.8 1.8 0 0 0-.733-1.564 3.67 3.67 0 0 0-2.155-.529h-.774zm-5 10.644v-18.763h7.414a7.928 7.928 0 0 1 3.445.7A5.231 5.231 0 0 1-8.6-32.544a6.062 6.062 0 0 1 .808 3.213 6.855 6.855 0 0 1-.421 2.45 5.578 5.578 0 0 1-1.222 1.933 5.993 5.993 0 0 1-1.973 1.325l6.072 7.123h-6.345l-5.038-6.5h-.012v6.5z" class="cls-1" transform="translate(21.733 35.267)"/>
                </g>
                <g id="g72" transform="translate(97.766 101.905)">
                    <path id="path74" d="M-31.637-48.975a3.935 3.935 0 0 0 1.672-.347 3.6 3.6 0 0 0 1.285-.994 4.63 4.63 0 0 0 .824-1.553 6.587 6.587 0 0 0 .29-2.018 6.586 6.586 0 0 0-.29-2.018 4.629 4.629 0 0 0-.824-1.552 3.608 3.608 0 0 0-1.285-.995 3.935 3.935 0 0 0-1.672-.347 3.935 3.935 0 0 0-1.672.347 3.608 3.608 0 0 0-1.285.995 4.635 4.635 0 0 0-.825 1.552 6.6 6.6 0 0 0-.29 2.018 6.6 6.6 0 0 0 .29 2.018 4.636 4.636 0 0 0 .825 1.553 3.6 3.6 0 0 0 1.285.995 3.935 3.935 0 0 0 1.672.347m0 4.821a9.1 9.1 0 0 1-3.684-.75 9.409 9.409 0 0 1-3.014-2.087 9.8 9.8 0 0 1-2.03-3.1 9.8 9.8 0 0 1-.734-3.793 9.8 9.8 0 0 1 .734-3.792 9.815 9.815 0 0 1 2.03-3.1 9.406 9.406 0 0 1 3.014-2.086 9.1 9.1 0 0 1 3.684-.75 9.1 9.1 0 0 1 3.684.75 9.406 9.406 0 0 1 3.014 2.086 9.815 9.815 0 0 1 2.03 3.1 9.8 9.8 0 0 1 .734 3.792 9.8 9.8 0 0 1-.734 3.793 9.8 9.8 0 0 1-2.03 3.1 9.409 9.409 0 0 1-3.014 2.09 9.1 9.1 0 0 1-3.684.75" class="cls-1" transform="translate(41.099 63.621)"/>
                </g>
                <g id="g76" transform="translate(119.622 102.246)">
                    <path id="path78" d="M0-62.74V-81.5h5v14.373h6.05v4.39z" class="cls-1" transform="translate(0 81.502)"/>
                </g>
                <g id="g80" transform="translate(132.779 102.246)">
                    <path id="path82" d="M0-62.74V-81.5h5v14.373h6.05v4.39z" class="cls-1" transform="translate(0 81.502)"/>
                </g>
                <g id="g84" transform="translate(146.938 119.005)">
                    <path id="path86" d="M-3.952-7.939a1.145 1.145 0 0 1-.6-.162 1.2 1.2 0 0 1-.428-.434 1.177 1.177 0 0 1-.157-.6 1.145 1.145 0 0 1 .162-.6 1.2 1.2 0 0 1 .428-.429 1.151 1.151 0 0 1 .591-.156 1.174 1.174 0 0 1 .6.156 1.162 1.162 0 0 1 .423.429 1.176 1.176 0 0 1 .157.6 1.177 1.177 0 0 1-.157.6 1.212 1.212 0 0 1-.423.434 1.137 1.137 0 0 1-.6.162" class="cls-1" transform="translate(5.133 10.313)"/>
                </g>
                <g id="g88" transform="translate(155.777 119.005)">
                    <path id="path90" d="M-3.952-7.939a1.143 1.143 0 0 1-.6-.162 1.191 1.191 0 0 1-.429-.434 1.181 1.181 0 0 1-.157-.6 1.143 1.143 0 0 1 .162-.6 1.2 1.2 0 0 1 .428-.429 1.149 1.149 0 0 1 .591-.156 1.172 1.172 0 0 1 .6.156 1.154 1.154 0 0 1 .423.429 1.176 1.176 0 0 1 .157.6 1.178 1.178 0 0 1-.157.6 1.2 1.2 0 0 1-.423.434 1.136 1.136 0 0 1-.6.162" class="cls-1" transform="translate(5.133 10.313)"/>
                </g>
                <g id="g92" transform="translate(164.615 119.005)">
                    <path id="path94" d="M-3.95-7.939a1.143 1.143 0 0 1-.6-.162 1.193 1.193 0 0 1-.429-.434 1.18 1.18 0 0 1-.156-.6 1.137 1.137 0 0 1 .162-.6 1.19 1.19 0 0 1 .428-.429 1.147 1.147 0 0 1 .59-.156 1.175 1.175 0 0 1 .6.156 1.162 1.162 0 0 1 .423.429 1.179 1.179 0 0 1 .156.6 1.18 1.18 0 0 1-.156.6 1.212 1.212 0 0 1-.423.434 1.139 1.139 0 0 1-.6.162" class="cls-1" transform="translate(5.131 10.313)"/>
                </g>
            </g>
        </g>
    </g>
</svg>
