<svg xmlns="http://www.w3.org/2000/svg" width="167.044" height="133.635" viewBox="0 0 167.044 133.635">
    <defs>
        <clipPath id="clip-path">
            <path id="path24" d="M0-768h167.044v133.635H0z" transform="translate(0 767.998)"/>
        </clipPath>
        <style>
            .cls-1{fill:#041f3d}
        </style>
    </defs>
    <g id="Group_451" transform="translate(-90.451 -91.5)">
        <g id="g12" transform="translate(107.154 107.797)">
            <path id="path14" d="M-538.93-453.726l-28.839-11.914h-80.541v-80.34h79.926l29.453 13.118zm-113.531-95.582v87h83.685l34 14.045v-14.045h15.952v-87z" class="cls-1" transform="translate(652.461 549.308)"/>
        </g>
        <g id="g16" transform="translate(115.168 144.492)">
            <path id="path18" d="M0-68.581v-14.447h1.331v6.619H9.22v-6.619h1.322v14.447H9.22v-6.655H1.331v6.655z" class="cls-1" transform="translate(0 83.028)"/>
        </g>
        <g id="g20" transform="translate(90.451 91.5)">
            <g id="g22" clip-path="url(#clip-path)">
                <path id="path28" d="M226.021-448.417h1.279v8.966h-1.278zm.639-1.8a.786.786 0 0 1-.416-.114.862.862 0 0 1-.3-.306.809.809 0 0 1-.114-.42.787.787 0 0 1 .114-.416.878.878 0 0 1 .3-.3.79.79 0 0 1 .416-.114.808.808 0 0 1 .425.114.9.9 0 0 1 .3.3.766.766 0 0 1 .114.412.828.828 0 0 1-.114.429.865.865 0 0 1-.3.306.8.8 0 0 1-.425.114" class="cls-1" transform="translate(-186.533 506.89)"/>
                <g id="g30" transform="translate(44.952 65.924)">
                    <path id="path32" d="M-2.162-17.291l-.333-.28a2.191 2.191 0 0 0 .289-.447 3.608 3.608 0 0 0 .223-.565 2.594 2.594 0 0 0 .11-.608.874.874 0 0 1-.534-.294.832.832 0 0 1-.21-.565.849.849 0 0 1 .254-.639.906.906 0 0 1 .657-.245.9.9 0 0 1 .683.276 1.092 1.092 0 0 1 .263.784 2.861 2.861 0 0 1-.4 1.383 3.962 3.962 0 0 1-1 1.2" class="cls-1" transform="translate(2.617 20.933)"/>
                </g>
                <path id="path34" d="M295.269-463.457h1.331v14.447h-1.331z" class="cls-1" transform="translate(-243.89 516.449)"/>
                <g id="g36" transform="translate(56.981 52.729)">
                    <path id="path38" d="M-2.037-16.377l-.306-.254a2.294 2.294 0 0 0 .272-.433 3.206 3.206 0 0 0 .206-.543 2.782 2.782 0 0 0 .1-.582.856.856 0 0 1-.5-.276.776.776 0 0 1-.2-.538.791.791 0 0 1 .237-.6.86.86 0 0 1 .622-.228.857.857 0 0 1 .644.258 1.024 1.024 0 0 1 .249.74 2.755 2.755 0 0 1-.387 1.322 3.615 3.615 0 0 1-.941 1.134" class="cls-1" transform="translate(2.467 19.827)"/>
                </g>
                <g id="g40" transform="translate(62.472 58.193)">
                    <path id="path42" d="M0-43.892v-8.966h1.278v1.226a3.572 3.572 0 0 1 1.279-1.125 3.6 3.6 0 0 1 1.663-.381 3.572 3.572 0 0 1 1.922.508 2.65 2.65 0 0 1 1.134 1.383 4.16 4.16 0 0 1 1.318-1.374 3.437 3.437 0 0 1 1.9-.517 3.612 3.612 0 0 1 1.7.39 2.834 2.834 0 0 1 1.169 1.138 3.648 3.648 0 0 1 .425 1.826v5.893h-1.276v-5.534a2.817 2.817 0 0 0-.639-1.944 2.174 2.174 0 0 0-1.708-.718 2.738 2.738 0 0 0-1.331.324 2.659 2.659 0 0 0-.946.836 1.847 1.847 0 0 0-.35 1.055v5.98H6.26v-5.665a2.606 2.606 0 0 0-.634-1.843 2.182 2.182 0 0 0-1.677-.683 2.915 2.915 0 0 0-1.344.311 2.683 2.683 0 0 0-.968.8 1.688 1.688 0 0 0-.359 1.007v6.077z" class="cls-1" transform="translate(0 53.139)"/>
                </g>
                <g id="g44" transform="translate(80.447 65.924)">
                    <path id="path46" d="M-4.24-8.52a.867.867 0 0 1-.451-.122.9.9 0 0 1-.324-.328.891.891 0 0 1-.118-.451.865.865 0 0 1 .123-.451.9.9 0 0 1 .324-.324.867.867 0 0 1 .447-.118.883.883 0 0 1 .455.118.872.872 0 0 1 .32.324.891.891 0 0 1 .119.451.889.889 0 0 1-.119.451.909.909 0 0 1-.32.328.86.86 0 0 1-.455.122" class="cls-1" transform="translate(5.133 10.315)"/>
                </g>
                <g id="g48" transform="translate(87.128 65.924)">
                    <path id="path50" d="M-4.241-8.52a.867.867 0 0 1-.451-.122.9.9 0 0 1-.324-.328.889.889 0 0 1-.118-.451.865.865 0 0 1 .123-.451.906.906 0 0 1 .324-.324.868.868 0 0 1 .447-.118.884.884 0 0 1 .455.118.876.876 0 0 1 .32.324.89.89 0 0 1 .118.451.889.889 0 0 1-.118.451.913.913 0 0 1-.32.328.861.861 0 0 1-.455.122" class="cls-1" transform="translate(5.135 10.315)"/>
                </g>
                <g id="g52" transform="translate(93.808 65.924)">
                    <path id="path54" d="M-4.24-8.52a.866.866 0 0 1-.451-.122.9.9 0 0 1-.324-.328.891.891 0 0 1-.118-.451.865.865 0 0 1 .123-.451.906.906 0 0 1 .324-.324.866.866 0 0 1 .447-.118.883.883 0 0 1 .455.118.872.872 0 0 1 .319.324.891.891 0 0 1 .119.451.889.889 0 0 1-.119.451.909.909 0 0 1-.319.328.86.86 0 0 1-.455.122" class="cls-1" transform="translate(5.133 10.315)"/>
                </g>
                <g id="g56" transform="translate(24.046 77.283)">
                    <path id="path58" d="M-17.953-29.13h.585a4.64 4.64 0 0 0 1.01-.112 1.68 1.68 0 0 0 .838-.443 1.338 1.338 0 0 0 .335-.993 1.382 1.382 0 0 0-.335-1.01 1.678 1.678 0 0 0-.838-.455 4.48 4.48 0 0 0-1.01-.116h-.585zm-3.782 8.045v-14.182h5.6a6.241 6.241 0 0 1 2.492.481 4 4 0 0 1 1.779 1.47A4.438 4.438 0 0 1-11.2-30.8a4.657 4.657 0 0 1-.662 2.557 4.23 4.23 0 0 1-1.779 1.569 5.72 5.72 0 0 1-2.492.533h-1.822v5.054z" class="cls-1" transform="translate(21.735 35.267)"/>
                </g>
                <g id="g60" transform="translate(33.355 77.283)">
                    <path id="path62" d="M-29.5-40.392h2.63l-1.315-3.369zm-6.214 5.673l5.776-14.181h3.507l5.776 14.182h-4.074l-.851-2.355h-5.209l-.851 2.355z" class="cls-1" transform="translate(35.713 48.901)"/>
                </g>
                <g id="g64" transform="translate(45.912 77.283)">
                    <path id="path66" d="M-25.3-67.321v-6.429l-5.325-7.75h4.555l2.664 3.937 2.665-3.937h4.555l-5.329 7.753v6.429z" class="cls-1" transform="translate(30.625 81.502)"/>
                </g>
                <g id="g68" transform="translate(61.435 77.283)">
                    <path id="path70" d="M-17.952-29.13h.585a3.652 3.652 0 0 0 1.207-.17 1.453 1.453 0 0 0 .731-.52 1.452 1.452 0 0 0 .245-.855 1.364 1.364 0 0 0-.554-1.182 2.774 2.774 0 0 0-1.629-.4h-.585zm-3.782 8.045v-14.182h5.6a5.993 5.993 0 0 1 2.6.529 3.954 3.954 0 0 1 1.719 1.53 4.582 4.582 0 0 1 .61 2.428 5.181 5.181 0 0 1-.318 1.852 4.216 4.216 0 0 1-.924 1.461 4.53 4.53 0 0 1-1.491 1l4.59 5.381h-4.8L-17.943-26h-.009v4.916z" class="cls-1" transform="translate(21.733 35.267)"/>
                </g>
                <g id="g72" transform="translate(73.897 77.025)">
                    <path id="path74" d="M-33.947-52.551a2.974 2.974 0 0 0 1.264-.262 2.724 2.724 0 0 0 .971-.752 3.5 3.5 0 0 0 .623-1.173 4.979 4.979 0 0 0 .219-1.526 4.978 4.978 0 0 0-.219-1.525 3.5 3.5 0 0 0-.623-1.173 2.727 2.727 0 0 0-.971-.752 2.974 2.974 0 0 0-1.264-.262 2.974 2.974 0 0 0-1.264.262 2.727 2.727 0 0 0-.971.752 3.5 3.5 0 0 0-.623 1.173 4.986 4.986 0 0 0-.219 1.525 4.986 4.986 0 0 0 .219 1.526 3.5 3.5 0 0 0 .623 1.173 2.724 2.724 0 0 0 .971.752 2.974 2.974 0 0 0 1.264.262m0 3.644a6.879 6.879 0 0 1-2.785-.567 7.111 7.111 0 0 1-2.278-1.578 7.409 7.409 0 0 1-1.534-2.348 7.408 7.408 0 0 1-.555-2.867 7.407 7.407 0 0 1 .555-2.866 7.418 7.418 0 0 1 1.534-2.347 7.11 7.11 0 0 1 2.278-1.577 6.875 6.875 0 0 1 2.785-.567 6.877 6.877 0 0 1 2.785.567 7.11 7.11 0 0 1 2.278 1.577 7.419 7.419 0 0 1 1.534 2.347 7.407 7.407 0 0 1 .555 2.866 7.408 7.408 0 0 1-.555 2.867 7.409 7.409 0 0 1-1.534 2.346 7.111 7.111 0 0 1-2.278 1.578 6.881 6.881 0 0 1-2.785.567" class="cls-1" transform="translate(41.099 63.621)"/>
                </g>
                <g id="g76" transform="translate(90.417 77.283)">
                    <path id="path78" d="M0-67.321V-81.5h3.782v10.864h4.573v3.318z" class="cls-1" transform="translate(0 81.502)"/>
                </g>
                <g id="g80" transform="translate(100.362 77.283)">
                    <path id="path82" d="M0-67.321V-81.5h3.782v10.864h4.573v3.318z" class="cls-1" transform="translate(0 81.502)"/>
                </g>
                <g id="g84" transform="translate(111.064 89.951)">
                    <path id="path86" d="M-4.24-8.519a.865.865 0 0 1-.451-.122.9.9 0 0 1-.324-.328.89.89 0 0 1-.118-.451.866.866 0 0 1 .123-.451.907.907 0 0 1 .324-.324.87.87 0 0 1 .447-.118.887.887 0 0 1 .455.118.878.878 0 0 1 .32.324.889.889 0 0 1 .118.451.89.89 0 0 1-.118.451.916.916 0 0 1-.32.328.86.86 0 0 1-.455.122" class="cls-1" transform="translate(5.133 10.313)"/>
                </g>
                <g id="g88" transform="translate(117.745 89.951)">
                    <path id="path90" d="M-4.24-8.519a.864.864 0 0 1-.451-.122.9.9 0 0 1-.324-.328.892.892 0 0 1-.118-.451.864.864 0 0 1 .123-.451.905.905 0 0 1 .324-.324.868.868 0 0 1 .447-.118.886.886 0 0 1 .455.118.872.872 0 0 1 .319.324.889.889 0 0 1 .119.451.89.89 0 0 1-.119.451.91.91 0 0 1-.319.328.859.859 0 0 1-.455.122" class="cls-1" transform="translate(5.133 10.313)"/>
                </g>
                <g id="g92" transform="translate(124.425 89.951)">
                    <path id="path94" d="M-4.238-8.519a.864.864 0 0 1-.451-.122.9.9 0 0 1-.324-.328.892.892 0 0 1-.118-.451.859.859 0 0 1 .123-.451.9.9 0 0 1 .324-.324.867.867 0 0 1 .446-.118.888.888 0 0 1 .456.118.878.878 0 0 1 .32.324.891.891 0 0 1 .118.451.892.892 0 0 1-.118.451.916.916 0 0 1-.32.328.861.861 0 0 1-.456.122" class="cls-1" transform="translate(5.131 10.313)"/>
                </g>
            </g>
        </g>
    </g>
</svg>
