<svg xmlns="http://www.w3.org/2000/svg" width="279" height="224.194" viewBox="0 0 279 224.194">
    <defs>
        <style>
            .cls-3{fill:#fff;fill-rule:evenodd}
        </style>
    </defs>
    <g id="Group_306" transform="translate(-567 -4602)">
        <text id="_" fill="#fff" font-family="Poppins-Bold, Poppins" font-size="80px" font-weight="700" transform="translate(774 4602)">
            <tspan x="-6.66" y="84">#</tspan>
        </text>
        <g id="Group_305">
            <text id="_2" fill="#fff" font-family="Poppins-Bold, Poppins" font-size="50px" font-weight="700" transform="translate(567 4677)">
                <tspan x="6.9" y="53">#</tspan>
            </text>
            <path id="Path_29" d="M9863.058 638.784l-133.918 52.079a4.907 4.907 0 0 0 .371 9.3l34.034 10.044 12.651 40.361a5.951 5.951 0 0 0 9.856 2.232l17.476-17.856 34.605 25.3a7.343 7.343 0 0 0 11.344-4.278l22.87-109.366a6.9 6.9 0 0 0-9.289-7.816zm-16.748 24.18l-62.3 55.055a4.4 4.4 0 0 0-1.112 2.046l-2.422 21.39c0 .744-.929.744-1.3 0l-9.858-31.619a3.519 3.519 0 0 1 1.485-3.906l73.475-45.569a1.662 1.662 0 0 1 2.032 2.603z" class="cls-3" transform="translate(-9026.497 4064.616)"/>
            <path id="Path_266" d="M6692.408 6190h-38.657a31.818 31.818 0 0 0-31.751 31.871v38.655a31.818 31.818 0 0 0 31.751 31.754h38.657a31.82 31.82 0 0 0 31.757-31.754v-38.655a31.82 31.82 0 0 0-31.757-31.871zm11.62 24.159a3.91 3.91 0 1 0-7.82 0 3.91 3.91 0 1 0 7.82 0zm-30.947 1.727a25.311 25.311 0 0 0 0 50.622 24.838 24.838 0 0 0 17.832-7.478 25.144 25.144 0 0 0 0-35.784 24.74 24.74 0 0 0-17.832-7.358zm0 41.878a16.692 16.692 0 1 1 11.736-4.946 16.614 16.614 0 0 1-11.736 4.948zm42.339 2.76a22.494 22.494 0 0 1-6.788 16.222 22.968 22.968 0 0 1-16.224 6.788h-38.657a23.445 23.445 0 0 1-16.334-6.788 22.859 22.859 0 0 1-6.675-16.222v-38.655a22.929 22.929 0 0 1 6.675-16.336 23.428 23.428 0 0 1 16.334-6.79h38.657a22.951 22.951 0 0 1 16.224 6.79 22.564 22.564 0 0 1 6.788 16.336z" class="cls-3" transform="translate(-5981.82 -1563.002)"/>
        </g>
        <path id="Path_267" d="M537 6333.217a48.858 48.858 0 0 0 74.933-41.28v-1.976c.987-.807 7-5.652 8.435-8.793a37.36 37.36 0 0 1-9.692 2.515c.448-.271 6.641-4.488 7.448-9.516a54.263 54.263 0 0 1-8.256 3.5c-.807.267-1.705.538-2.513.8a17.014 17.014 0 0 0-12.562-5.467 17.2 17.2 0 0 0-17.14 17.137 18.2 18.2 0 0 0 .447 3.863c-1.346 0-21.448-1.167-35.178-17.771 0 0-8.166 11.221 4.936 22.7a17.707 17.707 0 0 1-7.448-2.24s-1.257 13.551 13.55 17.049a15.65 15.65 0 0 1-7.538.272s2.6 10.946 15.7 12.024c0 0-10.32 9.331-25.127 7.177z" class="cls-3" transform="translate(69 -1528.11)"/>
    </g>
</svg>
