<svg width="134" height="101" xmlns="http://www.w3.org/2000/svg">
 <defs>
  <clipPath id="clip-path">
   <path d="m-16.703,-16.29899l167.044,0l0,133.635l-167.044,0l0,-133.635z" id="path24"/>
  </clipPath>
 </defs>
 <g>
  <title>Layer 1</title>
  <g id="Group_451">
   <g id="g12">
    <path fill="#041f3d" class="cls-1" d="m113.531,95.582l-28.839,-11.914l-80.541,0l0,-80.34l79.926,0l29.453,13.118l0.001,79.136zm-113.531,-95.582l0,87l83.685,0l34,14.045l0,-14.045l15.952,0l0,-87l-133.637,0z" id="path14"/>
   </g>
   <g id="g16">
    <path fill="#041f3d" class="cls-1" d="m8.014,51.14202l0,-14.447l1.331,0l0,6.619l7.889,0l0,-6.619l1.322,0l0,14.447l-1.322,0l0,-6.655l-7.889,0l0,6.655l-1.331,0z" id="path18"/>
   </g>
   <g id="g20">
    <g clip-path="url(#clip-path)" id="g22">
     <path fill="#041f3d" class="cls-1" d="m22.78499,42.17603l1.279,0l0,8.966l-1.278,0l-0.001,-8.966zm0.639,-1.8a0.786,0.786 0 0 1 -0.416,-0.114a0.862,0.862 0 0 1 -0.3,-0.306a0.809,0.809 0 0 1 -0.114,-0.42a0.787,0.787 0 0 1 0.114,-0.416a0.878,0.878 0 0 1 0.3,-0.3a0.79,0.79 0 0 1 0.416,-0.114a0.808,0.808 0 0 1 0.425,0.114a0.9,0.9 0 0 1 0.3,0.3a0.766,0.766 0 0 1 0.114,0.412a0.828,0.828 0 0 1 -0.114,0.429a0.865,0.865 0 0 1 -0.3,0.306a0.8,0.8 0 0 1 -0.425,0.114" id="path28"/>
     <g id="g30">
      <path fill="#041f3d" class="cls-1" d="m28.704,53.26902l-0.333,-0.28a2.191,2.191 0 0 0 0.289,-0.447a3.608,3.608 0 0 0 0.223,-0.565a2.594,2.594 0 0 0 0.11,-0.608a0.874,0.874 0 0 1 -0.534,-0.294a0.832,0.832 0 0 1 -0.21,-0.565a0.849,0.849 0 0 1 0.254,-0.639a0.906,0.906 0 0 1 0.657,-0.245a0.9,0.9 0 0 1 0.683,0.276a1.092,1.092 0 0 1 0.263,0.784a2.861,2.861 0 0 1 -0.4,1.383a3.962,3.962 0 0 1 -1,1.2" id="path32"/>
     </g>
     <path fill="#041f3d" class="cls-1" d="m34.676,36.69499l1.331,0l0,14.447l-1.331,0l0,-14.447z" id="path34"/>
     <g id="g36">
      <path fill="#041f3d" class="cls-1" d="m40.708,39.88202l-0.306,-0.254a2.294,2.294 0 0 0 0.272,-0.433a3.206,3.206 0 0 0 0.206,-0.543a2.782,2.782 0 0 0 0.1,-0.582a0.856,0.856 0 0 1 -0.5,-0.276a0.776,0.776 0 0 1 -0.2,-0.538a0.791,0.791 0 0 1 0.237,-0.6a0.86,0.86 0 0 1 0.622,-0.228a0.857,0.857 0 0 1 0.644,0.258a1.024,1.024 0 0 1 0.249,0.74a2.755,2.755 0 0 1 -0.387,1.322a3.615,3.615 0 0 1 -0.941,1.134" id="path38"/>
     </g>
     <g id="g40">
      <path fill="#041f3d" class="cls-1" d="m45.769,51.14302l0,-8.966l1.278,0l0,1.226a3.572,3.572 0 0 1 1.279,-1.125a3.6,3.6 0 0 1 1.663,-0.381a3.572,3.572 0 0 1 1.922,0.508a2.65,2.65 0 0 1 1.134,1.383a4.16,4.16 0 0 1 1.318,-1.374a3.437,3.437 0 0 1 1.9,-0.517a3.612,3.612 0 0 1 1.7,0.39a2.834,2.834 0 0 1 1.169,1.138a3.648,3.648 0 0 1 0.425,1.826l0,5.893l-1.276,0l0,-5.534a2.817,2.817 0 0 0 -0.639,-1.944a2.174,2.174 0 0 0 -1.708,-0.718a2.738,2.738 0 0 0 -1.331,0.324a2.659,2.659 0 0 0 -0.946,0.836a1.847,1.847 0 0 0 -0.35,1.055l0,5.98l-1.278,0l0,-5.665a2.606,2.606 0 0 0 -0.634,-1.843a2.182,2.182 0 0 0 -1.677,-0.683a2.915,2.915 0 0 0 -1.344,0.311a2.683,2.683 0 0 0 -0.968,0.8a1.688,1.688 0 0 0 -0.359,1.007l0,6.077l-1.278,-0.004z" id="path42"/>
     </g>
     <g id="g44">
      <path fill="#041f3d" class="cls-1" d="m64.637,51.42202a0.867,0.867 0 0 1 -0.451,-0.122a0.9,0.9 0 0 1 -0.324,-0.328a0.891,0.891 0 0 1 -0.118,-0.451a0.865,0.865 0 0 1 0.123,-0.451a0.9,0.9 0 0 1 0.324,-0.324a0.867,0.867 0 0 1 0.447,-0.118a0.883,0.883 0 0 1 0.455,0.118a0.872,0.872 0 0 1 0.32,0.324a0.891,0.891 0 0 1 0.119,0.451a0.889,0.889 0 0 1 -0.119,0.451a0.909,0.909 0 0 1 -0.32,0.328a0.86,0.86 0 0 1 -0.455,0.122" id="path46"/>
     </g>
     <g id="g48">
      <path fill="#041f3d" class="cls-1" d="m71.319,51.42202a0.867,0.867 0 0 1 -0.451,-0.122a0.9,0.9 0 0 1 -0.324,-0.328a0.889,0.889 0 0 1 -0.118,-0.451a0.865,0.865 0 0 1 0.123,-0.451a0.906,0.906 0 0 1 0.324,-0.324a0.868,0.868 0 0 1 0.447,-0.118a0.884,0.884 0 0 1 0.455,0.118a0.876,0.876 0 0 1 0.32,0.324a0.89,0.89 0 0 1 0.118,0.451a0.889,0.889 0 0 1 -0.118,0.451a0.913,0.913 0 0 1 -0.32,0.328a0.861,0.861 0 0 1 -0.455,0.122" id="path50"/>
     </g>
     <g id="g52">
      <path fill="#041f3d" class="cls-1" d="m77.998,51.42202a0.866,0.866 0 0 1 -0.451,-0.122a0.9,0.9 0 0 1 -0.324,-0.328a0.891,0.891 0 0 1 -0.118,-0.451a0.865,0.865 0 0 1 0.123,-0.451a0.906,0.906 0 0 1 0.324,-0.324a0.866,0.866 0 0 1 0.447,-0.118a0.883,0.883 0 0 1 0.455,0.118a0.872,0.872 0 0 1 0.319,0.324a0.891,0.891 0 0 1 0.119,0.451a0.889,0.889 0 0 1 -0.119,0.451a0.909,0.909 0 0 1 -0.319,0.328a0.86,0.86 0 0 1 -0.455,0.122" id="path54"/>
     </g>
     <g id="g56">
      <path fill="#041f3d" class="cls-1" d="m11.125,67.12302l0.585,0a4.64,4.64 0 0 0 1.01,-0.112a1.68,1.68 0 0 0 0.838,-0.443a1.338,1.338 0 0 0 0.335,-0.993a1.382,1.382 0 0 0 -0.335,-1.01a1.678,1.678 0 0 0 -0.838,-0.455a4.48,4.48 0 0 0 -1.01,-0.116l-0.585,0l0,3.129zm-3.782,8.045l0,-14.182l5.6,0a6.241,6.241 0 0 1 2.492,0.481a4,4 0 0 1 1.779,1.47a4.438,4.438 0 0 1 0.664,2.516a4.657,4.657 0 0 1 -0.662,2.557a4.23,4.23 0 0 1 -1.779,1.569a5.72,5.72 0 0 1 -2.492,0.533l-1.822,0l0,5.054l-3.78,0.002z" id="path58"/>
     </g>
     <g id="g60">
      <path fill="#041f3d" class="cls-1" d="m22.865,69.49502l2.63,0l-1.315,-3.369l-1.315,3.369zm-6.214,5.673l5.776,-14.181l3.507,0l5.776,14.182l-4.074,0l-0.851,-2.355l-5.209,0l-0.851,2.355l-4.074,-0.001z" id="path62"/>
     </g>
     <g id="g64">
      <path fill="#041f3d" class="cls-1" d="m34.534,75.16702l0,-6.429l-5.325,-7.75l4.555,0l2.664,3.937l2.665,-3.937l4.555,0l-5.329,7.753l0,6.429l-3.785,-0.003z" id="path66"/>
     </g>
     <g id="g68">
      <path fill="#041f3d" class="cls-1" d="m48.513,67.12302l0.585,0a3.652,3.652 0 0 0 1.207,-0.17a1.453,1.453 0 0 0 0.731,-0.52a1.452,1.452 0 0 0 0.245,-0.855a1.364,1.364 0 0 0 -0.554,-1.182a2.774,2.774 0 0 0 -1.629,-0.4l-0.585,0l0,3.127zm-3.782,8.045l0,-14.182l5.6,0a5.993,5.993 0 0 1 2.6,0.529a3.954,3.954 0 0 1 1.719,1.53a4.582,4.582 0 0 1 0.61,2.428a5.181,5.181 0 0 1 -0.318,1.852a4.216,4.216 0 0 1 -0.924,1.461a4.53,4.53 0 0 1 -1.491,1l4.59,5.381l-4.8,0l-3.795,-4.914l-0.009,0l0,4.916l-3.782,-0.001z" id="path70"/>
     </g>
     <g id="g72">
      <path fill="#041f3d" class="cls-1" d="m64.346,71.79802a2.974,2.974 0 0 0 1.264,-0.262a2.724,2.724 0 0 0 0.971,-0.752a3.5,3.5 0 0 0 0.623,-1.173a4.979,4.979 0 0 0 0.219,-1.526a4.978,4.978 0 0 0 -0.219,-1.525a3.5,3.5 0 0 0 -0.623,-1.173a2.727,2.727 0 0 0 -0.971,-0.752a2.974,2.974 0 0 0 -1.264,-0.262a2.974,2.974 0 0 0 -1.264,0.262a2.727,2.727 0 0 0 -0.971,0.752a3.5,3.5 0 0 0 -0.623,1.173a4.986,4.986 0 0 0 -0.219,1.525a4.986,4.986 0 0 0 0.219,1.526a3.5,3.5 0 0 0 0.623,1.173a2.724,2.724 0 0 0 0.971,0.752a2.974,2.974 0 0 0 1.264,0.262m0,3.644a6.879,6.879 0 0 1 -2.785,-0.567a7.111,7.111 0 0 1 -2.278,-1.578a7.409,7.409 0 0 1 -1.534,-2.348a7.408,7.408 0 0 1 -0.555,-2.867a7.407,7.407 0 0 1 0.555,-2.866a7.418,7.418 0 0 1 1.534,-2.347a7.11,7.11 0 0 1 2.278,-1.577a6.875,6.875 0 0 1 2.785,-0.567a6.877,6.877 0 0 1 2.785,0.567a7.11,7.11 0 0 1 2.278,1.577a7.419,7.419 0 0 1 1.534,2.347a7.407,7.407 0 0 1 0.555,2.866a7.408,7.408 0 0 1 -0.555,2.867a7.409,7.409 0 0 1 -1.534,2.346a7.111,7.111 0 0 1 -2.278,1.578a6.881,6.881 0 0 1 -2.785,0.567" id="path74"/>
     </g>
     <g id="g76">
      <path fill="#041f3d" class="cls-1" d="m73.714,75.16702l0,-14.179l3.782,0l0,10.864l4.573,0l0,3.318l-8.355,-0.003z" id="path78"/>
     </g>
     <g id="g80">
      <path fill="#041f3d" class="cls-1" d="m83.659,75.16702l0,-14.179l3.782,0l0,10.864l4.573,0l0,3.318l-8.355,-0.003z" id="path82"/>
     </g>
     <g id="g84">
      <path fill="#041f3d" class="cls-1" d="m95.254,75.44802a0.865,0.865 0 0 1 -0.451,-0.122a0.9,0.9 0 0 1 -0.324,-0.328a0.89,0.89 0 0 1 -0.118,-0.451a0.866,0.866 0 0 1 0.123,-0.451a0.907,0.907 0 0 1 0.324,-0.324a0.87,0.87 0 0 1 0.447,-0.118a0.887,0.887 0 0 1 0.455,0.118a0.878,0.878 0 0 1 0.32,0.324a0.889,0.889 0 0 1 0.118,0.451a0.89,0.89 0 0 1 -0.118,0.451a0.916,0.916 0 0 1 -0.32,0.328a0.86,0.86 0 0 1 -0.455,0.122" id="path86"/>
     </g>
     <g id="g88">
      <path fill="#041f3d" class="cls-1" d="m101.935,75.44802a0.864,0.864 0 0 1 -0.451,-0.122a0.9,0.9 0 0 1 -0.324,-0.328a0.892,0.892 0 0 1 -0.118,-0.451a0.864,0.864 0 0 1 0.123,-0.451a0.905,0.905 0 0 1 0.324,-0.324a0.868,0.868 0 0 1 0.447,-0.118a0.886,0.886 0 0 1 0.455,0.118a0.872,0.872 0 0 1 0.319,0.324a0.889,0.889 0 0 1 0.119,0.451a0.89,0.89 0 0 1 -0.119,0.451a0.91,0.91 0 0 1 -0.319,0.328a0.859,0.859 0 0 1 -0.455,0.122" id="path90"/>
     </g>
     <g id="g92">
      <path fill="#041f3d" class="cls-1" d="m108.615,75.44802a0.864,0.864 0 0 1 -0.451,-0.122a0.9,0.9 0 0 1 -0.324,-0.328a0.892,0.892 0 0 1 -0.118,-0.451a0.859,0.859 0 0 1 0.123,-0.451a0.9,0.9 0 0 1 0.324,-0.324a0.867,0.867 0 0 1 0.446,-0.118a0.888,0.888 0 0 1 0.456,0.118a0.878,0.878 0 0 1 0.32,0.324a0.891,0.891 0 0 1 0.118,0.451a0.892,0.892 0 0 1 -0.118,0.451a0.916,0.916 0 0 1 -0.32,0.328a0.861,0.861 0 0 1 -0.456,0.122" id="path94"/>
     </g>
    </g>
   </g>
  </g>
 </g>
</svg>