<svg xmlns="http://www.w3.org/2000/svg" width="40" height="40" viewBox="0 0 40 40">
    <g transform="translate(-317 -4268)">
        <circle cx="20" cy="20" r="20" fill="#ffb548" transform="translate(317 4268)"/>
        <path fill="#fff" fill-rule="evenodd" d="M537 6289.49a13.38 13.38 0 0 0 20.52-11.3v-.541a10.393 10.393 0 0 0 2.31-2.408 10.241 10.241 0 0 1-2.654.688 4.878 4.878 0 0 0 2.04-2.605 14.868 14.868 0 0 1-2.261.959c-.221.073-.467.147-.688.221a4.658 4.658 0 0 0-3.44-1.5 4.709 4.709 0 0 0-4.694 4.693 4.982 4.982 0 0 0 .123 1.058 14.044 14.044 0 0 1-9.634-4.866s-2.236 3.072 1.352 6.217a4.846 4.846 0 0 1-2.04-.613 4.474 4.474 0 0 0 3.711 4.669 4.281 4.281 0 0 1-2.064.074 4.646 4.646 0 0 0 4.3 3.293 9.022 9.022 0 0 1-6.881 1.961z" transform="translate(-211 -1994)"/>
    </g>
</svg>
