<svg xmlns="http://www.w3.org/2000/svg" width="24.329" height="24.329" viewBox="0 0 24.329 24.329">
    <defs>
        <clipPath id="clip-path">
            <path d="M0 0H24.329V24.329H0z" class="cls-1"/>
        </clipPath>
        <style>
            .cls-1{fill:none}
        </style>
    </defs>
    <g id="Component_3" clip-path="url(#clip-path)">
        <path id="Rectangle_393" d="M0 0H24.329V24.329H0z" class="cls-1"/>
        <path id="Path_2" fill="#fff" fill-rule="evenodd" d="M45.7 21.734A14.066 14.066 0 0 0 59.9 7.542v-.676A10.987 10.987 0 0 0 62.329 4.3a11.22 11.22 0 0 1-2.838.811 5.259 5.259 0 0 0 2.163-2.7 12.4 12.4 0 0 1-3.109 1.216A4.827 4.827 0 0 0 54.9 2a5.078 5.078 0 0 0-5 5 2.635 2.635 0 0 0 .135 1.081 13.974 13.974 0 0 1-10.278-5.27 5.176 5.176 0 0 0-.676 2.568 5.37 5.37 0 0 0 2.163 4.19 4.557 4.557 0 0 1-2.3-.676A4.94 4.94 0 0 0 43 13.759a4.167 4.167 0 0 1-1.352.135 2.3 2.3 0 0 1-.946-.135 5.121 5.121 0 0 0 4.731 3.514 10.205 10.205 0 0 1-6.217 2.163A3.742 3.742 0 0 1 38 19.3a12.758 12.758 0 0 0 7.7 2.433" transform="translate(-38 1.04)"/>
    </g>
</svg>
