<svg xmlns="http://www.w3.org/2000/svg" width="40" height="40" viewBox="0 0 40 40">
    <g>
        <g transform="translate(-265 -4217.046) translate(0 -50.954)">
            <circle cx="20" cy="20" r="20" fill="#ffb548" transform="translate(265 4268)"/>
            <g>
                <path fill="none" d="M0 0H24V24H0z" transform="translate(273 4276)"/>
                <path fill="#fff" d="M11 15a11.731 11.731 0 0 1-6.726-2.1A11.837 11.837 0 0 1 0 7.5a11.818 11.818 0 0 1 22 0 11.836 11.836 0 0 1-4.273 5.4A11.731 11.731 0 0 1 11 15zm0-12.5a5 5 0 1 0 5 5 5.005 5.005 0 0 0-5-5zm0 8a3 3 0 1 1 3-3 3 3 0 0 1-3 3z" transform="translate(273 4276) translate(1 4.5)"/>
            </g>
        </g>
    </g>
</svg>
