<svg xmlns="http://www.w3.org/2000/svg" width="23.643" height="28.736" viewBox="0 0 23.643 28.736">
    <defs>
        <style>
            .cls-1{fill:#fff;fill-rule:evenodd}
        </style>
    </defs>
    <g id="Group_724" transform="translate(-158.141 1.449)">
        <path id="Path_269" d="M617.9 9371.194a1.12 1.12 0 0 0-.1-.452.511.511 0 0 0-.419-.291.938.938 0 0 0-.581.225.49.49 0 0 0-.1.161v4.806l.032.065a.96.96 0 0 0 .516.291.478.478 0 0 0 .645-.356v-.257c.007-1.386.041-2.807.007-4.192zm0 0a1.12 1.12 0 0 0-.1-.452.511.511 0 0 0-.419-.291.938.938 0 0 0-.581.225.49.49 0 0 0-.1.161v4.806l.032.065a.96.96 0 0 0 .516.291.478.478 0 0 0 .645-.356v-.257c.007-1.386.041-2.807.007-4.192zm5.29-7.1c-5.58-.13-11.16-.13-16.708 0a3.544 3.544 0 0 0-3.484 3.547v8.711a3.542 3.542 0 0 0 3.484 3.545c5.548.127 11.128.127 16.708 0a3.515 3.515 0 0 0 3.451-3.545v-8.711a3.517 3.517 0 0 0-3.45-3.541zm-15.095 13.03h-1.581v-9.065h-1.677v-1.515h4.935v1.515H608.1zm5.773-3.743v3.743h-1.451v-.838c-.032.029-.064.065-.1.095a2.491 2.491 0 0 1-1.1.807 1.433 1.433 0 0 1-.645.065.836.836 0 0 1-.645-.516 1.862 1.862 0 0 1-.161-.84v-6.579h1.419v5.9a1 1 0 0 0 .032.325.339.339 0 0 0 .484.291 1.69 1.69 0 0 0 .71-.55v-5.966h1.451zm5.386 3a1.177 1.177 0 0 1-1.193.872 1.734 1.734 0 0 1-1.226-.55.863.863 0 0 0-.129-.158v.579h-1.419v-10.58h1.419v3.483a.873.873 0 0 1 .161-.259 1.762 1.762 0 0 1 .806-.516 1.245 1.245 0 0 1 1.484.677 3.019 3.019 0 0 1 .226 1.194v4.451a2.333 2.333 0 0 1-.127.811zm5.258-.291a1.69 1.69 0 0 1-1.484 1.227 2.414 2.414 0 0 1-1.355-.129 1.986 1.986 0 0 1-1.1-1.386 4.032 4.032 0 0 1-.1-.874v-3.481a2.359 2.359 0 0 1 .548-1.644 2.162 2.162 0 0 1 1.774-.677 3.268 3.268 0 0 1 .613.127 1.661 1.661 0 0 1 1.193 1.388 3.131 3.131 0 0 1 .065.774c.032.645 0 2 0 2h-2.709v1.938a.62.62 0 0 0 .613.645.647.647 0 0 0 .645-.645v-1h1.452a6.782 6.782 0 0 1-.153 1.741zm-1.29-5a.62.62 0 0 0-.645-.61.593.593 0 0 0-.613.61v1.1h1.258zm-5.419-.352a.511.511 0 0 0-.419-.291.938.938 0 0 0-.581.225.49.49 0 0 0-.1.161v4.806l.032.065a.96.96 0 0 0 .516.291.478.478 0 0 0 .645-.356v-.257c0-1.39.032-2.807 0-4.191a1.12 1.12 0 0 0-.096-.449z" class="cls-1" transform="translate(-444.859 -9352.709)"/>
        <path id="Path_270" d="M1052.1 9055v7.868h-1.451v-.839a5.867 5.867 0 0 1-.452.452 2.4 2.4 0 0 1-.935.486.9.9 0 0 1-1.161-.646 1.835 1.835 0 0 1-.1-.581V9055h1.452v6.255a.336.336 0 0 0 .484.26 1.527 1.527 0 0 0 .677-.518c.032-.03.032-.1.032-.16V9055z" class="cls-1" transform="translate(-875.508 -9053.675)"/>
        <path id="Path_271" d="M722.613 8973.16c-.29-1.355-.968-4.16-.968-4.16H720s1.258 4.227 1.839 6.128c0 .066.032.13.032.193v4.321h1.516v-4.321a.415.415 0 0 1 .032-.193c.581-1.9 1.838-6.128 1.838-6.128h-1.645s-.677 2.8-1 4.16z" class="cls-1" transform="translate(-558.086 -8970.449)"/>
        <path id="Path_272" d="M882.1 9049a2.092 2.092 0 0 0-2.1 2.1v4.1a2.1 2.1 0 0 0 4.193 0v-4.1a2.092 2.092 0 0 0-2.093-2.1zm.613 6.258a.613.613 0 0 1-1.226 0V9051a.614.614 0 0 1 1.226 0z" class="cls-1" transform="translate(-712.926 -9047.867)"/>
    </g>
</svg>
